<?xml version="1.0" encoding="UTF-8" standalone="no"?>
<svg
   width="48"
   height="48"
   version="1.1"
   id="svg51"
   sodipodi:docname="calibre-viewer.svg"
   xml:space="preserve"
   inkscape:version="1.2.2 (1:1.2.2+202212051552+b0a8486541)"
   xmlns:inkscape="http://www.inkscape.org/namespaces/inkscape"
   xmlns:sodipodi="http://sodipodi.sourceforge.net/DTD/sodipodi-0.dtd"
   xmlns:xlink="http://www.w3.org/1999/xlink"
   xmlns="http://www.w3.org/2000/svg"
   xmlns:svg="http://www.w3.org/2000/svg"><sodipodi:namedview
     id="namedview53"
     pagecolor="#ffffff"
     bordercolor="#666666"
     borderopacity="1.0"
     inkscape:showpageshadow="2"
     inkscape:pageopacity="0.0"
     inkscape:pagecheckerboard="0"
     inkscape:deskcolor="#d1d1d1"
     showgrid="false"
     inkscape:zoom="17.1875"
     inkscape:cx="12.218182"
     inkscape:cy="23.970909"
     inkscape:window-width="960"
     inkscape:window-height="1051"
     inkscape:window-x="0"
     inkscape:window-y="0"
     inkscape:window-maximized="0"
     inkscape:current-layer="svg51" /><defs
     id="defs31"><linearGradient
       id="linearGradient4193"><stop
         style="stop-color:#ffe7c9;stop-opacity:1;"
         offset="0"
         id="stop2" /><stop
         style="stop-color:#ff7b00;stop-opacity:1;"
         offset="1"
         id="stop4" /></linearGradient><linearGradient
       id="0"><stop
         stop-color="#ffffff"
         id="stop7" /><stop
         offset="1"
         stop-color="#ffffff"
         stop-opacity="0"
         id="stop9" /></linearGradient><linearGradient
       xlink:href="#2"
       id="1"
       y1="543.798"
       x2="0"
       y2="503.798"
       gradientUnits="userSpaceOnUse"
       gradientTransform="matrix(1.1250015,0,0,1,-435.6434,-499.798)" /><linearGradient
       id="2"><stop
         stop-color="#426467"
         id="stop13"
         offset="0"
         style="stop-color:#162d50;stop-opacity:1;" /><stop
         offset="1"
         stop-color="#525b58"
         id="stop15"
         style="stop-color:#356cbf;stop-opacity:1;" /></linearGradient><linearGradient
       xlink:href="#0"
       id="5"
       y1="527.798"
       x2="0"
       y2="504.798"
       gradientUnits="userSpaceOnUse"
       gradientTransform="translate(-384.57143,-499.79799)" /><linearGradient
       id="6"
       y1="-.883"
       x1="-41.26"
       y2="37.956"
       x2="-2.994"
       gradientUnits="userSpaceOnUse"
       gradientTransform="translate(-1.01,-1.022)"><stop
         stop-color="#21c9fb"
         id="stop19" /><stop
         offset="1"
         stop-color="#1a86f2"
         id="stop21" /></linearGradient><linearGradient
       xlink:href="#6"
       id="7"
       x1="404.571"
       y1="517.798"
       x2="424.571"
       y2="537.798"
       gradientUnits="userSpaceOnUse"
       gradientTransform="translate(-384.57143,-499.798)" /><linearGradient
       xlink:href="#linearGradient4193"
       id="linearGradient4199"
       x1="14"
       y1="21"
       x2="14"
       y2="4"
       gradientUnits="userSpaceOnUse"
       gradientTransform="translate(-1.99999,0)" /><linearGradient
       id="b"
       y1="4"
       x1="8"
       y2="18"
       gradientUnits="userSpaceOnUse"
       x2="22"><stop
         stop-color="#292c2f"
         id="stop26" /><stop
         offset="1"
         stop-opacity="0"
         id="stop28" /></linearGradient><linearGradient
       inkscape:collect="always"
       xlink:href="#c"
       id="linearGradient3447"
       x1="419.25339"
       y1="524.04877"
       x2="419.25339"
       y2="506.58966"
       gradientUnits="userSpaceOnUse"
       gradientTransform="matrix(1.0965173,0,0,1.0965173,-420.4377,-536.40812)" /><linearGradient
       id="c"
       y1="522.79999"
       y2="492.79999"
       x2="0"
       gradientUnits="userSpaceOnUse"
       gradientTransform="translate(31.064603,10)"><stop
         stop-color="#7cbaf8"
         id="stop2362" /><stop
         offset="1"
         stop-color="#f4fcff"
         id="stop2364" /></linearGradient></defs><rect
     style="fill:url(#1)"
     rx="0"
     y="4"
     x="6"
     height="40"
     width="36"
     id="rect33" /><path
     id="path4680-8-4-2-6-9-1-9-9-3"
     style="display:inline;fill:url(#linearGradient3447);fill-opacity:1;fill-rule:nonzero;stroke:none;stroke-width:0.0309666"
     d="m 21.961959,28.55164 c 0,-0.945866 -0.787299,-1.712617 -1.758528,-1.712617 -0.971252,2.2e-5 -1.758551,0.766773 -1.758551,1.712639 0,0.945867 0.787299,1.712629 1.758529,1.712629 0.971229,0 1.75855,-0.766773 1.75855,-1.712651 z m 4.125789,-3.827777 c 0,-1.050968 -0.87479,-1.902907 -1.953928,-1.902907 -1.079159,2.2e-5 -1.95395,0.851961 -1.95395,1.902929 0,1.050968 0.874791,1.902918 1.953928,1.902918 1.079138,0 1.953961,-0.851983 1.95395,-1.90294 z m 0.150267,7.801907 c 0,-1.050968 -0.874791,-1.902918 -1.953928,-1.902918 -1.07916,2.2e-5 -1.953939,0.851972 -1.953939,1.90294 0,1.050968 0.874779,1.902907 1.953917,1.902907 1.079137,0 1.953961,-0.851972 1.95395,-1.902929 z m 4.362428,4.037092 c -1.1e-5,-1.167736 -0.971997,-2.114349 -2.171038,-2.114349 -1.199064,2.2e-5 -2.17105,0.946634 -2.17105,2.114371 0,1.167758 0.971986,2.114348 2.171028,2.114348 1.199042,0 2.17106,-0.946634 2.17106,-2.11437 z M 30.545617,20.59383 c 0,-1.167747 -0.971985,-2.114359 -2.171027,-2.114359 -1.199075,3.3e-5 -2.171061,0.946634 -2.171061,2.11437 0,1.167737 0.971986,2.11436 2.171039,2.11436 1.199042,0 2.171049,-0.946645 2.171049,-2.114371 z m -0.160091,8.104163 c 0,-1.167737 -0.971997,-2.11436 -2.171039,-2.11436 -1.199063,2.2e-5 -2.171038,0.946645 -2.171038,2.114382 0,1.167747 0.971975,2.114337 2.171016,2.114337 1.199042,0 2.171061,-0.946623 2.171061,-2.114359 z m 4.481971,-4.130044 c 0,-1.297476 -1.079993,-2.349277 -2.412251,-2.349277 -1.332301,2.2e-5 -2.412283,1.051812 -2.412283,2.34931 0,1.297476 1.079982,2.349277 2.41225,2.349277 1.332269,-1.1e-5 2.412284,-1.051834 2.412284,-2.34931 z m -0.0954,8.167135 c 0,-1.297487 -1.079993,-2.349266 -2.412262,-2.349266 -1.33229,2.2e-5 -2.412272,1.051801 -2.412272,2.349299 0,1.297487 1.079982,2.349267 2.41225,2.349267 1.332269,0 2.412294,-1.051813 2.412284,-2.3493 z m 4.50878,-4.130032 c 0,-1.441657 -1.199985,-2.610325 -2.680283,-2.610325 -1.480331,4.3e-5 -2.680316,1.16869 -2.680316,2.610347 0,1.441646 1.199985,2.610314 2.680283,2.610314 1.480298,0 2.680316,-1.168701 2.680316,-2.610336 z" /><rect
     style="fill:#000000;fill-opacity:1;opacity:0.15"
     width="36"
     height="1"
     x="6"
     y="43"
     id="rect35" /><rect
     width="2"
     height="40"
     x="6"
     y="4"
     style="opacity:0.6;fill:#080809"
     id="rect37" /><rect
     style="fill:#8b8f8f"
     y="42"
     x="8"
     height="1"
     width="34"
     id="rect39" /><rect
     style="fill:#212323;fill-opacity:0.45199998"
     y="41"
     x="8"
     height="1"
     width="34"
     id="rect41" /><path
     style="fill:url(#linearGradient4199);fill-opacity:1"
     d="M 8,4 8,21 12,18.69141 16,21 16,4 8,4 Z"
     id="path43" /><path
     style="opacity:0.15;fill:url(#5)"
     d="m 9.00001,4 6,0 0,15 -3,-2 -3,2 z"
     id="path45" /><path
     style="opacity:0.2;fill:url(#b);fill-rule:evenodd"
     d="M 16,4 V 21 L 12,18.691 8,21 31,44 H 42 V 30 Z"
     id="path49" /></svg>
