<?xml version="1.0" encoding="UTF-8"?>
<svg width="48" height="48" version="1.1" xml:space="preserve" xmlns="http://www.w3.org/2000/svg" xmlns:xlink="http://www.w3.org/1999/xlink"><defs><linearGradient id="1" x2="0" y1="543.8" y2="503.8" gradientTransform="matrix(1.125 0 0 1 -435.64 -499.8)" gradientUnits="userSpaceOnUse"><stop stop-color="#162d50" offset="0"/><stop stop-color="#356cbf" offset="1"/></linearGradient><linearGradient id="5" x2="0" y1="527.8" y2="504.8" gradientTransform="translate(-384.57 -499.8)" gradientUnits="userSpaceOnUse"><stop stop-color="#fff" offset="0"/><stop stop-color="#fff" stop-opacity="0" offset="1"/></linearGradient><linearGradient id="linearGradient4199" x1="14" x2="14" y1="21" y2="4" gradientTransform="translate(-2)" gradientUnits="userSpaceOnUse"><stop stop-color="#ffe7c9" offset="0"/><stop stop-color="#ff7b00" offset="1"/></linearGradient><linearGradient id="b" x1="8" x2="22" y1="4" y2="18" gradientUnits="userSpaceOnUse"><stop stop-color="#292c2f" offset="0"/><stop stop-opacity="0" offset="1"/></linearGradient><linearGradient id="linearGradient3447" x1="419.25" x2="419.25" y1="524.05" y2="506.59" gradientTransform="matrix(1.0965 0 0 1.0965 -420.44 -536.41)" gradientUnits="userSpaceOnUse"><stop stop-color="#7cbaf8" offset="0"/><stop stop-color="#f4fcff" offset="1"/></linearGradient></defs><rect x="6" y="4" width="36" height="40" rx="0" fill="url(#1)" image-rendering="auto"/><path d="m21.962 28.552c0-0.94587-0.7873-1.7126-1.7585-1.7126-0.97125 2.2e-5 -1.7586 0.76677-1.7586 1.7126 0 0.94587 0.7873 1.7126 1.7585 1.7126 0.97123 0 1.7586-0.76677 1.7586-1.7127zm4.1258-3.8278c0-1.051-0.87479-1.9029-1.9539-1.9029-1.0792 2.2e-5 -1.954 0.85196-1.954 1.9029s0.87479 1.9029 1.9539 1.9029c1.0791 0 1.954-0.85198 1.954-1.9029zm0.15027 7.8019c0-1.051-0.87479-1.9029-1.9539-1.9029-1.0792 2.2e-5 -1.9539 0.85197-1.9539 1.9029s0.87478 1.9029 1.9539 1.9029c1.0791 0 1.954-0.85197 1.954-1.9029zm4.3624 4.0371c-1.1e-5 -1.1677-0.972-2.1143-2.171-2.1143-1.1991 2.2e-5 -2.171 0.94663-2.171 2.1144 0 1.1678 0.97199 2.1143 2.171 2.1143s2.1711-0.94663 2.1711-2.1144zm-0.054826-15.969c0-1.1677-0.97198-2.1144-2.171-2.1144-1.1991 3.3e-5 -2.1711 0.94663-2.1711 2.1144 0 1.1677 0.97199 2.1144 2.171 2.1144 1.199 0 2.171-0.94664 2.171-2.1144zm-0.16009 8.1042c0-1.1677-0.972-2.1144-2.171-2.1144-1.1991 2.2e-5 -2.171 0.94664-2.171 2.1144 0 1.1677 0.97198 2.1143 2.171 2.1143 1.199 0 2.1711-0.94662 2.1711-2.1144zm4.482-4.13c0-1.2975-1.08-2.3493-2.4123-2.3493-1.3323 2.2e-5 -2.4123 1.0518-2.4123 2.3493 0 1.2975 1.08 2.3493 2.4122 2.3493 1.3323-1.1e-5 2.4123-1.0518 2.4123-2.3493zm-0.0954 8.1671c0-1.2975-1.08-2.3493-2.4123-2.3493-1.3323 2.2e-5 -2.4123 1.0518-2.4123 2.3493 0 1.2975 1.08 2.3493 2.4122 2.3493 1.3323 0 2.4123-1.0518 2.4123-2.3493zm4.5088-4.13c0-1.4417-1.2-2.6103-2.6803-2.6103-1.4803 4.3e-5 -2.6803 1.1687-2.6803 2.6103 0 1.4416 1.2 2.6103 2.6803 2.6103s2.6803-1.1687 2.6803-2.6103z" fill="url(#linearGradient3447)"/><rect x="6" y="43" width="36" height="1" opacity=".15"/><rect x="6" y="4" width="2" height="40" fill="#080809" opacity=".6"/><rect x="8" y="42" width="34" height="1" fill="#8b8f8f"/><rect x="8" y="41" width="34" height="1" fill="#212323" fill-opacity=".452"/><path d="m8 4v17l4-2.3086 4 2.3086v-17h-8z" fill="url(#linearGradient4199)"/><path d="m9 4h6v15l-3-2-3 2z" fill="url(#5)" opacity=".15"/><path d="m16 4v17l-4-2.309-4 2.309 23 23h11v-14z" fill="url(#b)" fill-rule="evenodd" opacity=".2"/></svg>
